<?xml version="1.0" encoding="UTF-8"?>
<svg version="1.1" xmlns="http://www.w3.org/2000/svg" width="64" height="64">
<path d="M0 0 C1.45792884 -0.05399736 2.91642712 -0.09279177 4.375 -0.125 C5.18710938 -0.14820313 5.99921875 -0.17140625 6.8359375 -0.1953125 C9 0 9 0 11 2 C11.39764263 3.98821313 11.73775349 5.98944339 12 8 C13.12595581 7.9836853 13.12595581 7.9836853 14.2746582 7.96704102 C22.58404895 7.9007578 30.82940362 8.24426235 39.11547852 8.79956055 C41.2231061 8.93987038 43.33118694 9.07084622 45.43945312 9.20117188 C46.78649395 9.28851494 48.13350074 9.37638494 49.48046875 9.46484375 C50.68598389 9.543396 51.89149902 9.62194824 53.13354492 9.70288086 C56 10 56 10 58 11 C57.0722669 17.7606082 56.12626494 24.51922617 55 31.25 C54.855625 32.12140625 54.71125 32.9928125 54.5625 33.890625 C54 36 54 36 52 38 C49.22664573 38.19982025 46.55530357 38.279792 43.78125 38.265625 C42.56072937 38.26849518 42.56072937 38.26849518 41.31555176 38.27142334 C39.593991 38.27278527 37.87241997 38.26908828 36.15087891 38.26074219 C33.5105083 38.25004258 30.87081811 38.260637 28.23046875 38.2734375 C26.55989433 38.27211591 24.88932033 38.26955352 23.21875 38.265625 C22.42601685 38.26967346 21.63328369 38.27372192 20.81652832 38.27789307 C15.22992027 38.22992027 15.22992027 38.22992027 13 36 C12.3619533 33.86454144 11.8121804 31.70235279 11.30859375 29.53125 C11.08333763 28.57708191 11.08333763 28.57708191 10.85353088 27.6036377 C10.37471691 25.57061484 9.90566023 23.53550013 9.4375 21.5 C8.96415329 19.46492136 8.48876954 17.43035016 8.01075745 15.3963623 C7.57788717 13.55099947 7.1509861 11.70423949 6.72436523 9.85742188 C6.12813829 7.07818205 6.12813829 7.07818205 5 5 C2.47266765 4.34444881 2.47266765 4.34444881 0 4 C0 2.68 0 1.36 0 0 Z " fill="#000000" transform="translate(1,6)"/>
<path d="M0 0 C3 0.25 3 0.25 5 2.25 C5.25 5.25 5.25 5.25 5 8.25 C3 10.25 3 10.25 0 10.5 C-3 10.25 -3 10.25 -5 8.25 C-5.25 5.25 -5.25 5.25 -5 2.25 C-3 0.25 -3 0.25 0 0 Z " fill="#000000" transform="translate(47,47.75)"/>
<path d="M0 0 C3 0.25 3 0.25 5 2.25 C5.25 5.25 5.25 5.25 5 8.25 C3 10.25 3 10.25 0 10.5 C-3 10.25 -3 10.25 -5 8.25 C-5.25 5.25 -5.25 5.25 -5 2.25 C-3 0.25 -3 0.25 0 0 Z " fill="#000000" transform="translate(21,47.75)"/>
</svg>
