<?xml version="1.0" encoding="utf-8"?>
<!-- Generator: Adobe Illustrator 28.1.0, SVG Export Plug-In . SVG Version: 6.00 Build 0)  -->
<svg version="1.1" id="Calque_1" xmlns="http://www.w3.org/2000/svg" xmlns:xlink="http://www.w3.org/1999/xlink" x="0px" y="0px"
	 viewBox="0 0 500 500" style="enable-background:new 0 0 500 500;" xml:space="preserve">
<style type="text/css">
	.st0{fill:none;stroke:#6F4518;stroke-miterlimit:10;}
	.st1{fill:#FFFFFF;stroke:#6F4518;stroke-miterlimit:10;}
	.st2{fill:#8B5E34;}
	.st3{fill:#FFEDD8;}
	.st4{fill:none;}
	.st5{fill:#D4A276;}
	.st6{font-family:'AbrilDisplayBl-Italic';}
	.st7{font-size:60px;}
	.st8{letter-spacing:3;}
	.st9{fill:#603808;}
	.st10{font-family:'Lato-Medium';}
	.st11{font-size:12px;}
</style>
<circle class="st0" cx="250" cy="256.15" r="159.23"/>
<circle class="st1" cx="250" cy="255.83" r="156.4"/>
<circle class="st2" cx="250" cy="251.8" r="96.5"/>
<circle class="st3" cx="250" cy="250" r="5.88"/>
<g>
	<rect x="162" y="227.33" class="st4" width="182" height="66.95"/>
	<text transform="matrix(1 0 0 1 162 272.3293)" class="st5 st6 st7 st8">intyle</text>
	<g>
		<rect x="162" y="227.33" class="st4" width="182" height="66.95"/>
		<text transform="matrix(1 0 0 1 162 272.3293)" class="st5 st6 st7 st8">intyle</text>
	</g>
</g>
<g>
	<text transform="matrix(1.1692 0 0 1 268 287.4688)" class="st9 st10 st11">RECORDS</text>
</g>
<circle class="st0" cx="250" cy="256.15" r="162.15"/>
<g>
	<g>
		<path class="st9" d="M164.23,224.71h-2.75l0.18-1.17h8.51l-0.18,1.17h-1.87l-22.14,48.55h-12.45l-25.79-97.55h-3.33l0.18-1.17
			h30.15l-0.18,1.17h-5.76l21.02,79.28h0.45L164.23,224.71z"/>
	</g>
</g>
</svg>
